<svg xmlns="http://www.w3.org/2000/svg" xmlns:xlink="http://www.w3.org/1999/xlink" width="500" zoomAndPan="magnify" viewBox="0 0 375 374.999991" height="500" preserveAspectRatio="xMidYMid meet" version="1.0"><defs><clipPath id="1ef129bf3d"><path d="M 65.253906 29 L 276 29 L 276 336 L 65.253906 336 Z M 65.253906 29 " clip-rule="nonzero"/></clipPath><clipPath id="cafbc0d0c2"><path d="M 65.253906 33 L 276 33 L 276 336 L 65.253906 336 Z M 65.253906 33 " clip-rule="nonzero"/></clipPath><clipPath id="9b94757c70"><path d="M 65.253906 158 L 222 158 L 222 336 L 65.253906 336 Z M 65.253906 158 " clip-rule="nonzero"/></clipPath><clipPath id="169a030950"><path d="M 96 46 L 291.632812 46 L 291.632812 341 L 96 341 Z M 96 46 " clip-rule="nonzero"/></clipPath></defs><g clip-path="url(#1ef129bf3d)"><path fill="#323738" d="M 275.585938 51.941406 L 244.535156 34.125 C 243.175781 33.132812 241.71875 32.296875 240.171875 31.617188 L 239.714844 31.359375 L 239.695312 31.398438 C 231.339844 27.996094 220.550781 29.226562 208.777344 36.03125 L 113.132812 91.324219 C 86.835938 106.53125 65.316406 143.859375 65.316406 174.269531 L 65.316406 284.867188 C 65.316406 299.695312 70.460938 310.214844 78.753906 315.375 L 78.671875 315.523438 L 113.183594 335.101562 L 132.59375 301.265625 L 208.777344 257.21875 C 235.070312 242.011719 256.59375 204.6875 256.59375 174.273438 L 256.59375 85.054688 Z M 275.585938 51.941406 " fill-opacity="1" fill-rule="nonzero"/></g><g clip-path="url(#cafbc0d0c2)"><path fill="#252b2d" d="M 275.585938 51.941406 L 242.347656 44.132812 C 240.988281 43.140625 234.203125 43.164062 232.652344 42.488281 L 230.191406 41.5 L 225.753906 40.675781 C 217.398438 37.277344 220.550781 29.222656 208.777344 36.027344 L 113.132812 91.324219 C 86.835938 106.53125 65.316406 143.859375 65.316406 174.269531 L 65.316406 284.867188 C 65.316406 299.695312 70.460938 310.214844 78.753906 315.375 L 78.671875 315.523438 L 113.183594 335.101562 L 132.59375 301.265625 L 208.777344 257.21875 C 235.070312 242.011719 256.59375 204.6875 256.59375 174.273438 L 256.59375 85.054688 Z M 275.585938 51.941406 " fill-opacity="1" fill-rule="nonzero"/></g><g clip-path="url(#9b94757c70)"><path fill="#090c0c" d="M 67.144531 158.335938 C 65.984375 163.753906 65.324219 169.117188 65.324219 174.269531 L 65.324219 284.867188 C 65.324219 299.695312 70.46875 310.214844 78.761719 315.375 L 78.679688 315.523438 L 113.191406 335.101562 L 132.597656 301.265625 L 208.785156 257.21875 C 213.253906 254.636719 217.570312 251.371094 221.675781 247.648438 Z M 67.144531 158.335938 " fill-opacity="1" fill-rule="nonzero"/></g><path fill="#3b4142" d="M 146.011719 110.414062 C 119.714844 125.621094 98.191406 162.945312 98.191406 193.359375 L 98.191406 303.957031 C 98.191406 334.367188 119.714844 346.808594 146.011719 331.601562 L 241.648438 276.304688 C 267.949219 261.097656 289.46875 223.777344 289.46875 193.359375 L 289.46875 82.765625 C 289.46875 52.351562 267.949219 39.914062 241.648438 55.121094 Z M 146.011719 110.414062 " fill-opacity="1" fill-rule="nonzero"/><path fill="#383e3f" d="M 289.46875 82.765625 C 289.46875 52.351562 267.945312 39.914062 241.648438 55.121094 L 146.007812 110.414062 C 119.710938 125.621094 98.1875 162.945312 98.1875 193.359375 L 98.1875 303.957031 C 98.1875 334.367188 119.710938 346.808594 146.007812 331.601562 " fill-opacity="0.2" fill-rule="nonzero"/><path fill="#3b4142" d="M 98.851562 185.050781 L 288.816406 75.210938 C 289.121094 72.910156 289.308594 70.632812 289.390625 68.386719 L 98.273438 178.890625 C 98.355469 181.039062 98.550781 183.09375 98.851562 185.050781 Z M 98.851562 185.050781 " fill-opacity="1" fill-rule="nonzero"/><g clip-path="url(#169a030950)"><path fill="#4f5759" d="M 124.769531 340.070312 L 124.761719 340.070312 C 107.425781 340.070312 96.222656 325.890625 96.222656 303.957031 L 96.222656 193.359375 C 96.222656 162.242188 118.113281 124.261719 145.019531 108.707031 L 240.664062 53.40625 C 248.417969 48.925781 255.898438 46.65625 262.894531 46.65625 C 280.234375 46.65625 291.441406 60.832031 291.441406 82.765625 L 291.441406 193.359375 C 291.441406 224.484375 269.546875 262.460938 242.636719 278.015625 L 146.996094 333.316406 C 139.242188 337.792969 131.765625 340.070312 124.769531 340.070312 Z M 262.898438 50.597656 C 256.601562 50.597656 249.785156 52.691406 242.640625 56.816406 L 146.996094 112.117188 C 121.175781 127.050781 100.164062 163.488281 100.164062 193.351562 L 100.164062 303.949219 C 100.164062 323.785156 109.589844 336.109375 124.761719 336.109375 L 124.769531 336.109375 C 131.066406 336.109375 137.878906 334.015625 145.019531 329.890625 L 240.664062 274.589844 C 266.484375 259.660156 287.496094 223.214844 287.496094 193.355469 L 287.496094 82.757812 C 287.496094 62.921875 278.074219 50.597656 262.898438 50.597656 Z M 262.898438 50.597656 " fill-opacity="1" fill-rule="nonzero"/></g><path fill="#ff4d8d" d="M 136.253906 141.4375 C 136.253906 138.886719 138.050781 135.761719 140.257812 134.488281 C 142.460938 133.214844 144.261719 134.253906 144.261719 136.804688 C 144.261719 139.351562 142.457031 142.480469 140.257812 143.753906 C 138.054688 145.023438 136.253906 143.984375 136.253906 141.4375 Z M 136.253906 141.4375 " fill-opacity="1" fill-rule="nonzero"/><path fill="#ea2864" d="M 140.257812 143.753906 C 138.054688 145.023438 136.257812 143.984375 136.253906 141.4375 C 136.257812 138.886719 138.054688 135.761719 140.257812 134.488281 " fill-opacity="1" fill-rule="nonzero"/><path fill="#f7d011" d="M 153.320312 131.664062 C 153.320312 129.113281 155.117188 125.992188 157.320312 124.71875 C 159.523438 123.445312 161.328125 124.484375 161.328125 127.035156 C 161.328125 129.578125 159.523438 132.707031 157.320312 133.980469 C 155.121094 135.253906 153.320312 134.214844 153.320312 131.664062 Z M 153.320312 131.664062 " fill-opacity="1" fill-rule="nonzero"/><path fill="#f4b414" d="M 157.324219 133.980469 C 155.121094 135.253906 153.320312 134.214844 153.320312 131.664062 C 153.320312 129.113281 155.121094 125.992188 157.324219 124.71875 " fill-opacity="1" fill-rule="nonzero"/><path fill="#15eaa8" d="M 170.382812 121.894531 C 170.382812 119.34375 172.1875 116.21875 174.386719 114.945312 C 176.589844 113.671875 178.390625 114.710938 178.390625 117.261719 C 178.390625 119.8125 176.589844 122.933594 174.386719 124.207031 C 172.1875 125.480469 170.382812 124.4375 170.382812 121.894531 Z M 170.382812 121.894531 " fill-opacity="1" fill-rule="nonzero"/><path fill="#08c1b3" d="M 174.390625 124.207031 C 172.1875 125.480469 170.386719 124.441406 170.386719 121.894531 C 170.386719 119.34375 172.1875 116.21875 174.390625 114.945312 " fill-opacity="1" fill-rule="nonzero"/><path fill="#ffffff" d="M 185.804688 225.632812 C 184.589844 225.632812 183.355469 225.324219 182.226562 224.671875 L 144.949219 203.121094 C 141.519531 201.136719 140.34375 196.738281 142.320312 193.304688 C 144.304688 189.867188 148.683594 188.6875 152.125 190.671875 L 189.402344 212.226562 C 192.835938 214.210938 194.007812 218.609375 192.027344 222.042969 C 190.699219 224.347656 188.289062 225.632812 185.804688 225.632812 Z M 185.804688 225.632812 " fill-opacity="1" fill-rule="nonzero"/><path fill="#ffffff" d="M 148.53125 290.292969 C 147.316406 290.292969 146.082031 289.980469 144.949219 289.332031 C 141.519531 287.347656 140.347656 282.949219 142.324219 279.515625 L 179.601562 214.851562 C 181.582031 211.414062 185.957031 210.234375 189.402344 212.21875 C 192.835938 214.203125 194.011719 218.597656 192.027344 222.035156 L 154.753906 286.699219 C 153.421875 289.003906 151.011719 290.292969 148.53125 290.292969 Z M 148.53125 290.292969 " fill-opacity="1" fill-rule="nonzero"/><path fill="#ffffff" d="M 198.25 261.558594 C 195.769531 261.558594 193.359375 260.273438 192.027344 257.96875 C 190.050781 254.53125 191.222656 250.136719 194.660156 248.152344 L 244.367188 219.414062 C 247.800781 217.421875 252.1875 218.609375 254.167969 222.042969 C 256.144531 225.484375 254.972656 229.875 251.539062 231.859375 L 201.832031 260.597656 C 200.699219 261.253906 199.464844 261.558594 198.25 261.558594 Z M 198.25 261.558594 " fill-opacity="1" fill-rule="nonzero"/></svg>